<?xml version="1.0" encoding="UTF-8"?><svg id="uuid-4b870bd3-0b5b-4997-b798-c7af11b67048" xmlns="http://www.w3.org/2000/svg" viewBox="0 0 166.25 188.5"><defs><style>.uuid-343b2e58-c02c-4e54-b4a4-b1f3d3614dda{fill:#fff;}.uuid-d47ed115-1add-4a3f-ac17-70172157eb3f{fill:#ffc600;}.uuid-330575cd-3b57-4e2d-8bc2-7e078ff6dfbe{fill:#663f00;}.uuid-c4b7242d-8362-4acc-8c4e-acbb8b3b9951{fill:none;stroke-width:11px;}.uuid-c4b7242d-8362-4acc-8c4e-acbb8b3b9951,.uuid-827bb371-7fbe-49a2-be09-ad9694ec823a{stroke:#000;stroke-miterlimit:10;}.uuid-827bb371-7fbe-49a2-be09-ad9694ec823a{stroke-width:3.5px;}</style></defs><g id="uuid-0955eca4-ef76-45e7-a025-1d651557ccaa"><g><g><rect class="uuid-827bb371-7fbe-49a2-be09-ad9694ec823a" x="1.75" y="178.75" width="77" height="8"/><rect class="uuid-827bb371-7fbe-49a2-be09-ad9694ec823a" x="41.75" y="1.75" width="103" height="8"/><rect class="uuid-827bb371-7fbe-49a2-be09-ad9694ec823a" x="-50.75" y="86.25" width="177" height="8" transform="translate(128 52.5) rotate(90)"/><rect class="uuid-827bb371-7fbe-49a2-be09-ad9694ec823a" x="132.25" y="13.25" width="17" height="8" transform="translate(158 -123.5) rotate(90)"/><rect class="uuid-827bb371-7fbe-49a2-be09-ad9694ec823a" x="30.46" y="19.5" width="48.08" height="8" transform="translate(109.65 1.58) rotate(135)"/></g><g><circle class="uuid-c4b7242d-8362-4acc-8c4e-acbb8b3b9951" cx="141.25" cy="48.25" r="19.5"/><rect class="uuid-827bb371-7fbe-49a2-be09-ad9694ec823a" x="129.75" y="73.75" width="22" height="8" transform="translate(218.5 -63) rotate(90)"/><g><circle class="uuid-d47ed115-1add-4a3f-ac17-70172157eb3f" cx="141.25" cy="48.25" r="15.54"/><circle class="uuid-330575cd-3b57-4e2d-8bc2-7e078ff6dfbe" cx="135.29" cy="45.14" r="2.59"/><circle class="uuid-330575cd-3b57-4e2d-8bc2-7e078ff6dfbe" cx="147.21" cy="45.14" r="2.59"/><path class="uuid-330575cd-3b57-4e2d-8bc2-7e078ff6dfbe" d="M148.35,54.47c-.78-1.86-2.67-3.11-7.1-3.11s-6.33,1.25-7.1,3.11c-.41,.99,.18,2.07,.18,2.07,.23,.63,1.15,1.04,6.93,1.04s6.69-.41,6.92-1.04c0,0,.59-1.08,.18-2.07Z"/><path class="uuid-343b2e58-c02c-4e54-b4a4-b1f3d3614dda" d="M146.41,53.93c.04-.13,0-.32-.1-.41,0,0-1.16-1.12-5.07-1.12s-5.07,1.12-5.07,1.12c-.1,.09-.14,.28-.1,.41l.09,.29c.04,.13,.18,.24,.3,.24h9.55c.13,0,.26-.11,.3-.24l.09-.29Z"/></g></g></g></g></svg>