<?xml version="1.0" encoding="UTF-8"?><svg id="uuid-0b440a60-4551-4129-80ab-bbbbd91dbe17" xmlns="http://www.w3.org/2000/svg" viewBox="0 0 166.25 188.5"><defs><style>.uuid-4a315b98-7ca6-4405-b063-752018cdfe60{fill:#fff;}.uuid-074c250b-21a9-48f7-8689-9662790580b9{fill:#ffc600;}.uuid-1661467f-2e3f-4a1f-9db3-337da2b1703a{fill:#663f00;}.uuid-b638f032-9500-4c78-9f5f-fe1d506acc40{fill:#916c00;}.uuid-d9b8807d-41a8-4fce-aeaf-72bc9131b9cd{fill:none;stroke-width:11px;}.uuid-d9b8807d-41a8-4fce-aeaf-72bc9131b9cd,.uuid-44f159a6-aaf1-4aea-827d-1c9f60cb0b09{stroke:#000;stroke-miterlimit:10;}.uuid-44f159a6-aaf1-4aea-827d-1c9f60cb0b09{stroke-width:3.5px;}</style></defs><g id="uuid-98429746-d725-4fea-9bcc-6082634c1580"><g><g><rect class="uuid-44f159a6-aaf1-4aea-827d-1c9f60cb0b09" x="1.75" y="178.75" width="77" height="8"/><rect class="uuid-44f159a6-aaf1-4aea-827d-1c9f60cb0b09" x="41.75" y="1.75" width="103" height="8"/><rect class="uuid-44f159a6-aaf1-4aea-827d-1c9f60cb0b09" x="-50.75" y="86.25" width="177" height="8" transform="translate(128 52.5) rotate(90)"/><rect class="uuid-44f159a6-aaf1-4aea-827d-1c9f60cb0b09" x="132.25" y="13.25" width="17" height="8" transform="translate(158 -123.5) rotate(90)"/><rect class="uuid-44f159a6-aaf1-4aea-827d-1c9f60cb0b09" x="30.46" y="19.5" width="48.08" height="8" transform="translate(109.65 1.58) rotate(135)"/></g><g><circle class="uuid-d9b8807d-41a8-4fce-aeaf-72bc9131b9cd" cx="141.25" cy="48.25" r="19.5"/><polygon class="uuid-44f159a6-aaf1-4aea-827d-1c9f60cb0b09" points="119.31 85.68 143.97 73.42 140.55 66.22 115.88 78.48 119.31 85.68"/><rect class="uuid-44f159a6-aaf1-4aea-827d-1c9f60cb0b09" x="129.75" y="73.75" width="22" height="8" transform="translate(218.5 -63) rotate(90)"/><g><circle class="uuid-074c250b-21a9-48f7-8689-9662790580b9" cx="141.25" cy="48.25" r="15.54"/><circle class="uuid-1661467f-2e3f-4a1f-9db3-337da2b1703a" cx="135.29" cy="45.14" r="2.59"/><circle class="uuid-1661467f-2e3f-4a1f-9db3-337da2b1703a" cx="147.21" cy="45.14" r="2.59"/><path class="uuid-1661467f-2e3f-4a1f-9db3-337da2b1703a" d="M149.37,53.43c-.89-1.86-3.05-3.11-8.12-3.11s-7.23,1.25-8.12,3.11c-.47,.99,.2,2.59,.2,2.59,.85,2.01,.73,2.59,7.91,2.59s7.07-.58,7.91-2.59c0,0,.68-1.6,.2-2.59Z"/><path class="uuid-4a315b98-7ca6-4405-b063-752018cdfe60" d="M147.13,52.89c.05-.13,0-.32-.11-.41,0,0-1.32-1.12-5.77-1.12s-5.77,1.12-5.77,1.12c-.11,.09-.16,.28-.11,.41l.1,.29c.05,.13,.2,.24,.34,.24h10.88c.14,0,.3-.11,.34-.24l.1-.29Z"/><path class="uuid-b638f032-9500-4c78-9f5f-fe1d506acc40" d="M151.71,40.32c-1.67-1.42-3.9-2.01-6.06-1.62-.3,.06-.56-1.05-.2-1.12,2.49-.45,5.05,.24,6.99,1.87,.28,.24-.5,1.07-.73,.87Z"/><path class="uuid-b638f032-9500-4c78-9f5f-fe1d506acc40" d="M136.84,38.62c-2.16-.39-4.38,.21-6.06,1.62-.23,.2-1.01-.62-.73-.87,1.93-1.63,4.5-2.32,6.99-1.87,.36,.07,.1,1.18-.2,1.12Z"/></g></g></g></g></svg>