<?xml version="1.0" encoding="UTF-8"?><svg id="uuid-e4cee6fe-a906-433b-9f44-e6a5ac071a36" xmlns="http://www.w3.org/2000/svg" viewBox="0 0 167.29 188.5"><defs><style>.uuid-28102137-8be1-4c07-82fb-dd4baf905b40{fill:#0084ef;}.uuid-fe9596c6-ba8d-4304-9c2c-a551055e3e79{fill:#fff;}.uuid-bbc69efc-717d-4015-8174-4598284aac8a{fill:#ffc600;}.uuid-074d1279-04cc-4460-aea7-1e04eef9586a{fill:#663f00;}.uuid-8f417728-38df-47bd-a4a0-96d52922ecd4{fill:#916c00;}.uuid-d1979e4b-98de-4165-99ea-80b2a6cc8216{fill:none;stroke-width:11px;}.uuid-d1979e4b-98de-4165-99ea-80b2a6cc8216,.uuid-3a90b03e-c647-483b-8e82-0c7b96e0cea5{stroke:#000;stroke-miterlimit:10;}.uuid-3a90b03e-c647-483b-8e82-0c7b96e0cea5{stroke-width:3.5px;}</style></defs><g id="uuid-dd36af25-299f-4a61-8c2b-bb4c6e81aa46"><g><g><rect class="uuid-3a90b03e-c647-483b-8e82-0c7b96e0cea5" x="1.75" y="178.75" width="77" height="8"/><rect class="uuid-3a90b03e-c647-483b-8e82-0c7b96e0cea5" x="41.75" y="1.75" width="103" height="8"/><rect class="uuid-3a90b03e-c647-483b-8e82-0c7b96e0cea5" x="-50.75" y="86.25" width="177" height="8" transform="translate(128 52.5) rotate(90)"/><rect class="uuid-3a90b03e-c647-483b-8e82-0c7b96e0cea5" x="132.25" y="13.25" width="17" height="8" transform="translate(158 -123.5) rotate(90)"/><rect class="uuid-3a90b03e-c647-483b-8e82-0c7b96e0cea5" x="30.46" y="19.5" width="48.08" height="8" transform="translate(109.65 1.58) rotate(135)"/></g><g><circle class="uuid-d1979e4b-98de-4165-99ea-80b2a6cc8216" cx="141.25" cy="48.25" r="19.5"/><polygon class="uuid-3a90b03e-c647-483b-8e82-0c7b96e0cea5" points="119.31 85.68 143.97 73.42 140.55 66.22 115.88 78.48 119.31 85.68"/><polygon class="uuid-3a90b03e-c647-483b-8e82-0c7b96e0cea5" points="161.55 85.68 136.88 73.42 140.31 66.22 164.97 78.48 161.55 85.68"/><rect class="uuid-3a90b03e-c647-483b-8e82-0c7b96e0cea5" x="129.75" y="73.75" width="22" height="8" transform="translate(218.5 -63) rotate(90)"/><g><circle class="uuid-bbc69efc-717d-4015-8174-4598284aac8a" cx="141.25" cy="48.25" r="15.54"/><circle class="uuid-074d1279-04cc-4460-aea7-1e04eef9586a" cx="141.25" cy="56.61" r="4.31"/><path class="uuid-fe9596c6-ba8d-4304-9c2c-a551055e3e79" d="M138.24,54.87c.6-1.04,1.73-1.74,3.01-1.74s2.41,.7,3.01,1.74h-6.03Z"/><circle class="uuid-074d1279-04cc-4460-aea7-1e04eef9586a" cx="147.21" cy="48.77" r="2.33"/><circle class="uuid-074d1279-04cc-4460-aea7-1e04eef9586a" cx="135.29" cy="48.77" r="2.33"/><path class="uuid-8f417728-38df-47bd-a4a0-96d52922ecd4" d="M137.92,40.95c-1.68,1.42-3.9,2.01-6.06,1.62-.3-.06-.56,1.05-.2,1.12,2.49,.45,5.05-.24,6.99-1.87,.28-.24-.5-1.07-.73-.87Z"/><path class="uuid-8f417728-38df-47bd-a4a0-96d52922ecd4" d="M150.63,42.49c-2.16,.39-4.38-.21-6.06-1.62-.23-.2-1.01,.62-.73,.87,1.93,1.63,4.5,2.32,6.99,1.87,.36-.07,.1-1.18-.2-1.12Z"/><path class="uuid-28102137-8be1-4c07-82fb-dd4baf905b40" d="M156.79,41.28c0,4.86-6.6,4.86-6.6,0,0-3.55,3.3-7.01,3.3-7.01,0,0,3.3,3.46,3.3,7.01Z"/></g></g></g></g></svg>