<?xml version="1.0" encoding="UTF-8"?><svg id="uuid-1f3c5bef-6c56-4083-9b1e-5ae706382589" xmlns="http://www.w3.org/2000/svg" viewBox="0 0 167.29 188.5"><defs><style>.uuid-c0622689-5324-479d-ab5c-4345a591d836{fill:#0084ef;}.uuid-edd9753a-74f0-48ca-8f6b-ae9e26c3b11c{fill:#fff;}.uuid-581b2e64-e098-431a-b95a-8c63a6d18d08{fill:#ffc600;}.uuid-5db349de-d87f-4486-8162-ccdf893e0462{fill:#663f00;}.uuid-971924f8-b8bb-4464-bbad-0d1ae510c0dc{fill:#916c00;}.uuid-f40484ee-86b5-425f-bdc9-70af063b4ff7{fill:none;stroke-width:11px;}.uuid-f40484ee-86b5-425f-bdc9-70af063b4ff7,.uuid-695e9767-26e1-4f4c-af49-702e8026d44b{stroke:#000;stroke-miterlimit:10;}.uuid-695e9767-26e1-4f4c-af49-702e8026d44b{stroke-width:3.5px;}</style></defs><g id="uuid-61dbbeab-12af-4734-9672-5c4d4b997c50"><g><g><rect class="uuid-695e9767-26e1-4f4c-af49-702e8026d44b" x="1.75" y="178.75" width="77" height="8"/><rect class="uuid-695e9767-26e1-4f4c-af49-702e8026d44b" x="41.75" y="1.75" width="103" height="8"/><rect class="uuid-695e9767-26e1-4f4c-af49-702e8026d44b" x="-50.75" y="86.25" width="177" height="8" transform="translate(128 52.5) rotate(90)"/><rect class="uuid-695e9767-26e1-4f4c-af49-702e8026d44b" x="132.25" y="13.25" width="17" height="8" transform="translate(158 -123.5) rotate(90)"/><rect class="uuid-695e9767-26e1-4f4c-af49-702e8026d44b" x="30.46" y="19.5" width="48.08" height="8" transform="translate(109.65 1.58) rotate(135)"/></g><g><circle class="uuid-f40484ee-86b5-425f-bdc9-70af063b4ff7" cx="141.25" cy="48.25" r="19.5"/><polygon class="uuid-695e9767-26e1-4f4c-af49-702e8026d44b" points="119.31 85.68 143.97 73.42 140.55 66.22 115.88 78.48 119.31 85.68"/><polygon class="uuid-695e9767-26e1-4f4c-af49-702e8026d44b" points="161.55 85.68 136.88 73.42 140.31 66.22 164.97 78.48 161.55 85.68"/><rect class="uuid-695e9767-26e1-4f4c-af49-702e8026d44b" x="134.25" y="91.25" width="13" height="8" transform="translate(236 -45.5) rotate(90)"/><rect class="uuid-695e9767-26e1-4f4c-af49-702e8026d44b" x="129.75" y="73.75" width="22" height="8" transform="translate(218.5 -63) rotate(90)"/><g><circle class="uuid-581b2e64-e098-431a-b95a-8c63a6d18d08" cx="141.25" cy="48.25" r="15.54"/><path class="uuid-5db349de-d87f-4486-8162-ccdf893e0462" d="M145.69,55.72c-2.8-1.31-6.1-1.32-8.91,0-.69,.33,.17,2.15,.86,1.81,1.85-.86,4.61-1.19,7.19,0,.69,.32,1.59-1.46,.86-1.81Z"/><circle class="uuid-edd9753a-74f0-48ca-8f6b-ae9e26c3b11c" cx="147.98" cy="47.73" r="4.66"/><circle class="uuid-5db349de-d87f-4486-8162-ccdf893e0462" cx="147.98" cy="47.73" r="3.11"/><ellipse class="uuid-edd9753a-74f0-48ca-8f6b-ae9e26c3b11c" cx="148.79" cy="50.05" rx="1.46" ry="1.68"/><ellipse class="uuid-edd9753a-74f0-48ca-8f6b-ae9e26c3b11c" cx="146.83" cy="47.73" rx=".85" ry=".99"/><circle class="uuid-edd9753a-74f0-48ca-8f6b-ae9e26c3b11c" cx="134.52" cy="47.73" r="4.66"/><circle class="uuid-5db349de-d87f-4486-8162-ccdf893e0462" cx="134.52" cy="47.73" r="3.11"/><path class="uuid-edd9753a-74f0-48ca-8f6b-ae9e26c3b11c" d="M135.32,48.36c.8,0,1.46,.75,1.46,1.68s-.65,1.68-1.46,1.68-1.46-.75-1.46-1.68,.65-1.68,1.46-1.68Z"/><path class="uuid-edd9753a-74f0-48ca-8f6b-ae9e26c3b11c" d="M133.37,46.75c.47,0,.85,.44,.85,.99s-.38,.99-.85,.99-.85-.44-.85-.99,.38-.99,.85-.99Z"/><path class="uuid-c0622689-5324-479d-ab5c-4345a591d836" d="M149.02,50.32c-2.63,3.51-4.14,6.73-4.14,9.39,0,2.25,1.85,4.08,4.14,4.08s4.14-1.83,4.14-4.08c0-2.65-1.56-5.93-4.15-9.39Z"/><path class="uuid-971924f8-b8bb-4464-bbad-0d1ae510c0dc" d="M152.23,42.4c-1.67-1.42-3.9-2.01-6.06-1.62-.3,.06-.56-1.05-.2-1.12,2.49-.45,5.05,.24,6.99,1.87,.28,.24-.5,1.07-.73,.87Z"/><path class="uuid-971924f8-b8bb-4464-bbad-0d1ae510c0dc" d="M136.32,40.7c-2.16-.39-4.38,.21-6.06,1.62-.23,.2-1.01-.62-.73-.87,1.93-1.63,4.5-2.32,6.99-1.87,.36,.07,.1,1.18-.2,1.12Z"/></g></g></g></g></svg>