<?xml version="1.0" encoding="UTF-8"?><svg id="uuid-249d959d-8b11-4fe0-9560-df8b03dade6a" xmlns="http://www.w3.org/2000/svg" viewBox="0 0 167.29 188.5"><defs><style>.uuid-2dc4fe61-6a68-4786-921b-bd88db634b72{fill:#0084ef;}.uuid-b46d6e63-7234-4075-93b3-2b5c890b2202{fill:#fff;}.uuid-a19e28df-af49-436a-8cc8-7743f82e71a7{fill:#ffc600;}.uuid-06b2230b-b51b-42c4-851f-3db7575f2b81{fill:#663f00;}.uuid-86042776-fe61-48b5-a493-12439ca3ba22{fill:#916c00;}.uuid-80192514-b4f3-488c-9586-891d32960de7{fill:none;stroke-width:11px;}.uuid-80192514-b4f3-488c-9586-891d32960de7,.uuid-28b6c3ad-9c22-40db-beec-2fa5b0d2e841{stroke:#000;stroke-miterlimit:10;}.uuid-28b6c3ad-9c22-40db-beec-2fa5b0d2e841{stroke-width:3.5px;}</style></defs><g id="uuid-d50fe78f-4fde-4fdf-b383-22cab99ff6aa"><g><g><rect class="uuid-28b6c3ad-9c22-40db-beec-2fa5b0d2e841" x="1.75" y="178.75" width="77" height="8"/><rect class="uuid-28b6c3ad-9c22-40db-beec-2fa5b0d2e841" x="41.75" y="1.75" width="103" height="8"/><rect class="uuid-28b6c3ad-9c22-40db-beec-2fa5b0d2e841" x="-50.75" y="86.25" width="177" height="8" transform="translate(128 52.5) rotate(90)"/><rect class="uuid-28b6c3ad-9c22-40db-beec-2fa5b0d2e841" x="132.25" y="13.25" width="17" height="8" transform="translate(158 -123.5) rotate(90)"/><rect class="uuid-28b6c3ad-9c22-40db-beec-2fa5b0d2e841" x="30.46" y="19.5" width="48.08" height="8" transform="translate(109.65 1.58) rotate(135)"/></g><g><circle class="uuid-80192514-b4f3-488c-9586-891d32960de7" cx="141.25" cy="48.25" r="19.5"/><polygon class="uuid-28b6c3ad-9c22-40db-beec-2fa5b0d2e841" points="119.31 85.68 143.97 73.42 140.55 66.22 115.88 78.48 119.31 85.68"/><polygon class="uuid-28b6c3ad-9c22-40db-beec-2fa5b0d2e841" points="161.55 85.68 136.88 73.42 140.31 66.22 164.97 78.48 161.55 85.68"/><rect class="uuid-28b6c3ad-9c22-40db-beec-2fa5b0d2e841" x="134.25" y="91.25" width="13" height="8" transform="translate(236 -45.5) rotate(90)"/><rect class="uuid-28b6c3ad-9c22-40db-beec-2fa5b0d2e841" x="129.75" y="73.75" width="22" height="8" transform="translate(218.5 -63) rotate(90)"/><rect class="uuid-28b6c3ad-9c22-40db-beec-2fa5b0d2e841" x="114.44" y="108.64" width="32.85" height="8" transform="translate(303.04 99.75) rotate(135)"/><g><path class="uuid-2dc4fe61-6a68-4786-921b-bd88db634b72" d="M133.73,61.92c3.57,0,6.46,.35,6.46,.78s-2.89,.78-6.46,.78-6.46-.35-6.46-.78,2.89-.78,6.46-.78Z"/><path class="uuid-2dc4fe61-6a68-4786-921b-bd88db634b72" d="M147.44,61.92c5.16,0,9.35,.42,9.35,.93s-4.19,.93-9.35,.93-9.35-.42-9.35-.93,4.19-.93,9.35-.93Z"/><circle class="uuid-a19e28df-af49-436a-8cc8-7743f82e71a7" cx="141.25" cy="48.25" r="15.54"/><path class="uuid-06b2230b-b51b-42c4-851f-3db7575f2b81" d="M147.85,55.5c-.72-1.86-2.48-3.11-6.6-3.11s-5.87,1.25-6.6,3.11c-.39,.99,.17,2.59,.17,2.59,.69,2.01,.59,2.59,6.43,2.59s5.74-.58,6.43-2.59c0,0,.55-1.6,.17-2.59Z"/><path class="uuid-b46d6e63-7234-4075-93b3-2b5c890b2202" d="M145.9,54.97c.04-.13,0-.32-.09-.41,0,0-1.04-1.12-4.56-1.12s-4.56,1.12-4.56,1.12c-.08,.09-.13,.28-.09,.41l.08,.29c.04,.13,.16,.24,.27,.24h8.59c.11,0,.23-.11,.27-.24l.08-.29Z"/><path class="uuid-2dc4fe61-6a68-4786-921b-bd88db634b72" d="M147.71,63h3.54c4.25-5.13-.8-10.37,.47-15.43-1.18,0-2.36,1.32-3.54,1.32-1.63,4.91,3.78,8.98-.47,14.11Z"/><path class="uuid-2dc4fe61-6a68-4786-921b-bd88db634b72" d="M134.78,63h-3.54c-4.25-5.13,.8-10.37-.46-15.43,1.18,0,2.36,1.32,3.54,1.32,1.63,4.91-3.78,8.98,.46,14.11Z"/><path class="uuid-86042776-fe61-48b5-a493-12439ca3ba22" d="M145.74,41.16c1.55,1.56,3.71,2.34,5.89,2.14,.3-.03,.47,1.09,.1,1.13-2.52,.23-5.01-.68-6.8-2.47-.26-.27,.59-1.02,.81-.8Z"/><path class="uuid-86042776-fe61-48b5-a493-12439ca3ba22" d="M130.87,43.3c2.19,.2,4.35-.59,5.89-2.14,.21-.22,1.06,.53,.8,.8-1.78,1.8-4.28,2.7-6.8,2.47-.37-.04-.2-1.16,.1-1.13Z"/><path class="uuid-06b2230b-b51b-42c4-851f-3db7575f2b81" d="M143.28,47.36c2.18,4.12,6.58,4.12,8.76,0,.11-.21-.18-.3-.52-.54-2.19,1.72-5.73,1.56-7.71,0-.35,.23-.63,.33-.52,.54Z"/><path class="uuid-06b2230b-b51b-42c4-851f-3db7575f2b81" d="M130.46,47.36c2.18,4.12,6.58,4.12,8.76,0,.11-.21-.18-.3-.52-.54-2.19,1.72-5.73,1.56-7.71,0-.35,.23-.63,.33-.52,.54Z"/></g></g></g></g></svg>