<?xml version="1.0" encoding="UTF-8"?><svg id="uuid-93ac56f1-3311-4d76-8670-de0c227fb69d" xmlns="http://www.w3.org/2000/svg" viewBox="0 0 168.45 188.5"><defs><style>.uuid-72f11bde-14e2-49e9-8584-328095235531{fill:#fff;}.uuid-00f70153-7115-47f8-bd86-432da8d54de3{fill:#ffc600;}.uuid-f0349ceb-efe9-49ca-b897-a4ac1b599e5e{fill:#663f00;}.uuid-921e18cf-235c-40d8-ac45-54d8a2951d5f{fill:none;stroke-width:11px;}.uuid-921e18cf-235c-40d8-ac45-54d8a2951d5f,.uuid-17c49c3d-af84-4221-a31b-69979e5e132d{stroke:#000;stroke-miterlimit:10;}.uuid-17c49c3d-af84-4221-a31b-69979e5e132d{stroke-width:3.5px;}</style></defs><g id="uuid-fd8a0d82-1fd8-4798-942d-d2b69dc7434f"><g><g><rect class="uuid-17c49c3d-af84-4221-a31b-69979e5e132d" x="1.75" y="178.75" width="77" height="8"/><rect class="uuid-17c49c3d-af84-4221-a31b-69979e5e132d" x="41.75" y="1.75" width="103" height="8"/><rect class="uuid-17c49c3d-af84-4221-a31b-69979e5e132d" x="-50.75" y="86.25" width="177" height="8" transform="translate(128 52.5) rotate(90)"/><rect class="uuid-17c49c3d-af84-4221-a31b-69979e5e132d" x="132.25" y="13.25" width="17" height="8" transform="translate(158 -123.5) rotate(90)"/><rect class="uuid-17c49c3d-af84-4221-a31b-69979e5e132d" x="30.46" y="19.5" width="48.08" height="8" transform="translate(109.65 1.58) rotate(135)"/></g><g><circle class="uuid-921e18cf-235c-40d8-ac45-54d8a2951d5f" cx="141.25" cy="48.25" r="19.5"/><g><polygon class="uuid-17c49c3d-af84-4221-a31b-69979e5e132d" points="119.31 85.68 143.97 73.42 140.55 66.22 115.88 78.48 119.31 85.68"/><polygon class="uuid-17c49c3d-af84-4221-a31b-69979e5e132d" points="161.55 85.68 136.88 73.42 140.31 66.22 164.97 78.48 161.55 85.68"/><rect class="uuid-17c49c3d-af84-4221-a31b-69979e5e132d" x="134.25" y="91.25" width="13" height="8" transform="translate(236 -45.5) rotate(90)"/><rect class="uuid-17c49c3d-af84-4221-a31b-69979e5e132d" x="129.75" y="73.75" width="22" height="8" transform="translate(218.5 -63) rotate(90)"/><rect class="uuid-17c49c3d-af84-4221-a31b-69979e5e132d" x="114.44" y="108.64" width="32.85" height="8" transform="translate(303.04 99.75) rotate(135)"/><rect class="uuid-17c49c3d-af84-4221-a31b-69979e5e132d" x="134.94" y="108.67" width="33.04" height="8" transform="translate(124.03 -74.1) rotate(45)"/></g><g><circle class="uuid-00f70153-7115-47f8-bd86-432da8d54de3" cx="141.25" cy="48.25" r="15.54"/><path class="uuid-f0349ceb-efe9-49ca-b897-a4ac1b599e5e" d="M139.49,41.95l-6.29,6.3c-.4,.4-1.84-1.04-1.44-1.44l6.3-6.29c.4-.4,1.84,1.04,1.44,1.44Z"/><path class="uuid-f0349ceb-efe9-49ca-b897-a4ac1b599e5e" d="M138.05,48.25l-6.3-6.3c-.4-.4,1.05-1.84,1.44-1.44l6.3,6.29c.4,.4-1.04,1.84-1.44,1.44Z"/><path class="uuid-f0349ceb-efe9-49ca-b897-a4ac1b599e5e" d="M150.74,41.95l-6.29,6.3c-.4,.4-1.84-1.04-1.44-1.44l6.29-6.29c.4-.4,1.84,1.04,1.44,1.44Z"/><path class="uuid-f0349ceb-efe9-49ca-b897-a4ac1b599e5e" d="M149.3,48.25l-6.29-6.3c-.4-.4,1.04-1.84,1.44-1.44l6.29,6.29c.4,.4-1.04,1.84-1.44,1.44Z"/><circle class="uuid-f0349ceb-efe9-49ca-b897-a4ac1b599e5e" cx="141.25" cy="56.02" r="4.66"/><path class="uuid-72f11bde-14e2-49e9-8584-328095235531" d="M138.14,54.47c.62-1.24,1.78-2.07,3.11-2.07s2.49,.83,3.11,2.07h-6.22Z"/></g></g></g></g></svg>